<?xml version="1.0" encoding="UTF-8"?>
<svg xmlns="http://www.w3.org/2000/svg" xmlns:xlink="http://www.w3.org/1999/xlink" width="195.7pt" height="195.7pt" viewBox="0 0 195.7 195.7" version="1.1">
<defs>
<clipPath id="clip1">
  <path d="M 0 0 L 195.699219 0 L 195.699219 195.699219 L 0 195.699219 Z M 0 0 "/>
</clipPath>
</defs>
<g id="surface1">
<g clip-path="url(#clip1)" clip-rule="nonzero">
<path style="fill:none;stroke-width:50;stroke-linecap:butt;stroke-linejoin:miter;stroke:rgb(92.89856%,12.199402%,14.099121%);stroke-opacity:1;stroke-miterlimit:10;" d="M 1931.953125 978.484375 C 1931.953125 451.882813 1505.078125 25.007813 978.476563 25.007813 C 451.875 25.007813 25 451.882813 25 978.484375 C 25 1505.085938 451.875 1931.960938 978.476563 1931.960938 C 1505.078125 1931.960938 1931.953125 1505.085938 1931.953125 978.484375 Z M 1931.953125 978.484375 " transform="matrix(0.1,0,0,-0.1,0,195.7)"/>
<path style="fill:none;stroke-width:40;stroke-linecap:butt;stroke-linejoin:miter;stroke:rgb(92.89856%,12.199402%,14.099121%);stroke-opacity:1;stroke-miterlimit:10;" d="M 178.4375 537.234375 L 983.242188 1912.976563 L 1788.085938 537.234375 Z M 178.4375 537.234375 " transform="matrix(0.1,0,0,-0.1,0,195.7)"/>
</g>
<path style=" stroke:none;fill-rule:evenodd;fill:rgb(92.89856%,12.199402%,14.099121%);fill-opacity:1;" d="M 104.832031 68.871094 C 108.429688 67.996094 108.375 69.976563 108.359375 65.976563 L 88.53125 65.976563 L 88.53125 68.761719 C 93.53125 68.832031 93.53125 68.921875 93.53125 74.378906 L 93.53125 114.160156 C 93.53125 119.726563 94.136719 125.882813 89.554688 127.476563 C 82.554688 129.890625 84.046875 121.300781 78 122.878906 L 78.164063 126.472656 C 78.164063 129.980469 90.683594 132.84375 96.410156 128.476563 C 101.726563 124.433594 102.214844 118.167969 102.214844 109.417969 L 102.324219 72.484375 C 102.503906 70.714844 102.953125 69.339844 104.832031 68.871094 "/>
<path style="fill:none;stroke-width:40;stroke-linecap:butt;stroke-linejoin:miter;stroke:rgb(92.89856%,12.199402%,14.099121%);stroke-opacity:1;stroke-miterlimit:10;" d="M 1048.320313 1268.289063 C 1084.296875 1277.039063 1083.75 1257.234375 1083.59375 1297.234375 L 885.3125 1297.234375 L 885.3125 1269.382813 C 935.3125 1268.679688 935.3125 1267.78125 935.3125 1213.210938 L 935.3125 815.398438 C 935.3125 759.734375 941.367188 698.171875 895.546875 682.234375 C 825.546875 658.09375 840.46875 743.992188 780 728.210938 L 781.640625 692.273438 C 781.640625 657.195313 906.835938 628.5625 964.101563 672.234375 C 1017.265625 712.664063 1022.148438 775.320313 1022.148438 862.820313 L 1023.242188 1232.15625 C 1025.039063 1249.851563 1029.53125 1263.601563 1048.320313 1268.289063 Z M 1048.320313 1268.289063 " transform="matrix(0.1,0,0,-0.1,0,195.7)"/>
</g>
</svg>
